<svg xmlns="http://www.w3.org/2000/svg" xmlns:xlink="http://www.w3.org/1999/xlink" xml:space="preserve" style="shape-rendering:geometricPrecision;text-rendering:geometricPrecision;image-rendering:optimizeQuality;" viewBox="0 0 21.8228 19.1435" x="0px" y="0px" fill-rule="evenodd" clip-rule="evenodd"><defs><style type="text/css">
   
    .fil0 {fill:black}
   
  </style></defs><g><polygon class="fil0" points="1.1561,0.4832 3.7534,0 10.1559,5.0737 2.4245,2.8993 "/><polygon class="fil0" points="-0,5.5867 2.0737,3.95 10.1021,5.4599 2.2473,7.1345 "/><path class="fil0" d="M1.5324 10.9558c0.3309,-0.8161 0.6618,-1.6322 0.9928,-2.4483l7.7244 -2.6585c-1.9995,1.7802 -3.999,3.5603 -5.9985,5.3405 -0.9062,-0.0779 -1.8125,-0.1558 -2.7187,-0.2337z"/><polygon class="fil0" points="7.5654,11.8107 7.2871,10.1492 10.5955,6.1252 9.1204,11.0297 "/><polygon class="fil0" points="11.173,15.3148 9.5266,13.4473 10.999,6.1842 12.7103,13.2769 "/><polygon class="fil0" points="14.2963,11.0535 12.8928,10.4787 11.3819,6.0387 14.436,9.4931 "/><polygon class="fil0" points="20.3692,10.8197 17.7485,11.1532 11.6475,5.7206 19.2415,8.3349 "/><polygon class="fil0" points="21.8228,5.5394 19.6941,7.104 11.7222,5.3194 19.63,3.9154 "/><polygon class="fil0" points="20.6405,0.4329 19.4868,2.8095 11.6024,4.9476 17.9433,0.0186 "/></g><text x="0" y="30.314799999999998" fill="#000000" font-size="5px" font-weight="bold" font-family="'Helvetica Neue', Helvetica, Arial-Unicode, Arial, Sans-serif">Created by RIZCA</text><text x="0" y="35.3148" fill="#000000" font-size="5px" font-weight="bold" font-family="'Helvetica Neue', Helvetica, Arial-Unicode, Arial, Sans-serif">from the Noun Project</text></svg>